<svg xmlns="http://www.w3.org/2000/svg" viewBox="0 0 64 64" fill="none">
  <rect width="64" height="64" rx="12" fill="#14B8A6"/>
  <circle cx="32" cy="32" r="20" fill="white"/>
  <!-- Font Awesomeスタイルのドル記号（中央揃え調整） -->
  <g transform="translate(32, 32) scale(0.045) translate(32, 0)">
    <path d="M-56 -224C-56 -237.3 -45.3 -248 -32 -248C-18.7 -248 -8 -237.3 -8 -224L-8 -184L48 -184C65.7 -184 80 -169.7 80 -152C80 -134.3 65.7 -120 48 -120L-66.9 -120C-91.8 -120 -112 -99.8 -112 -74.9C-112 -52.4 -95.5 -33.4 -73.3 -30.2L18.3 -17.1C72.1 -9.5 112 36.6 112 90.9C112 151.2 63.1 200 2.9 200L-8 200L-8 240C-8 253.3 -18.7 264 -32 264C-45.3 264 -56 253.3 -56 240L-56 200L-128 200C-145.7 200 -160 185.7 -160 168C-160 150.3 -145.7 136 -128 136L2.9 136C27.8 136 48 115.8 48 90.9C48 68.4 31.5 49.4 9.3 46.2L-82.3 33.1C-136.1 25.5 -176 -20.6 -176 -74.9C-176 -135.1 -127.1 -184 -66.9 -184L-56 -184L-56 -224z"
          fill="#14B8A6"/>
  </g>
</svg>
