<svg xmlns="http://www.w3.org/2000/svg" viewBox="0 0 16 16" fill="currentColor">
  <path d="M5.5 0a.5.5 0 0 1 0 1H1.707l2.147 2.146a.5.5 0 0 1-.708.708L1 1.707V5.5a.5.5 0 0 1-1 0v-5A.5.5 0 0 1 .5 0h5zm5 0h5a.5.5 0 0 1 .5.5v5a.5.5 0 0 1-1 0V1.707l-2.146 2.147a.5.5 0 0 1-.708-.708L14.293 1H10.5a.5.5 0 0 1 0-1zm-5 16a.5.5 0 0 1 0-1H5.5a.5.5 0 0 0 0-1H1.707l2.147-2.146a.5.5 0 0 0-.708-.708L1 14.293V10.5a.5.5 0 0 0-1 0v5a.5.5 0 0 0 .5.5h5zm9.5-.5a.5.5 0 0 1-1 0v-3.793l-2.146 2.147a.5.5 0 0 1-.708-.708L14.293 11H10.5a.5.5 0 0 1 0-1h5a.5.5 0 0 1 .5.5v5z"/>
</svg>
