<svg xmlns="http://www.w3.org/2000/svg" viewBox="0 0 64 64">
  <rect width="64" height="64" rx="12" fill="#EF4444"/>
  <g transform="translate(7, 7) scale(0.05)" fill="white">
    <path d="M880,570l51,68,48-36-69-92H826.59a548.81,548.81,0,0,0-9.26-56.19l102.67-56V280H860v82.19l-60.28,32.88c-16.93-36.16-49.7-64-91.23-72.43-5.43-48.58-25.35-92.45-57.42-125.61A197.52,197.52,0,0,0,596,157l31.87-75.89-55.7-22.28-30.51,80.28a230.64,230.64,0,0,0-83.28,0L427.85,58.86l-55.7,22.28L404,157a197.52,197.52,0,0,0-55.09,40c-32.08,33.16-52,77-57.42,125.61-41.53,8.42-74.3,36.27-91.23,72.43L140,362.19V280H80V397.81l102.67,56A548.81,548.81,0,0,0,173.41,510H90L21,602l48,36,51-68h50a438.27,438.27,0,0,0,9.75,92.71L80,699V840h60V741l56.78-20.64c16.13,42.55,39.28,81.17,68.8,113.94C327,902.46,410.24,940,500,940s173-37.54,234.42-105.69c29.52-32.77,52.67-71.39,68.8-113.94L860,741v99h60V699l-99.75-36.28A438.27,438.27,0,0,0,830,570ZM392.05,238.75c27.47-28.39,64.8-43.4,108-43.4s80.48,15,108,43.4c20.75,21.45,34.36,49.62,39.61,81.25H352.43C357.68,288.37,371.3,260.2,392.05,238.75Zm297.79,555.4C646.92,841.79,591,871,530,878.22V440H470V878.22c-61-7.23-116.92-36.43-159.84-84.07C258.47,736.77,230,657.17,230,570c0-45.42,7.27-96.93,21.24-140.93,8.22-25.84,31.49-49.07,66.81-49.07H682c35.31,0,58.59,23.23,66.8,49.07,14,44,21.24,95.51,21.24,140.93C770,657.17,741.53,736.77,689.84,794.15Z"/>
  </g>
</svg>
